<?xml version="1.0" standalone="no"?>
<!DOCTYPE svg PUBLIC "-//W3C//DTD SVG 20010904//EN"
 "http://www.w3.org/TR/2001/REC-SVG-20010904/DTD/svg10.dtd">
<svg version="1.0" xmlns="http://www.w3.org/2000/svg"
 width="1920.000000pt" height="1080.000000pt" viewBox="0 0 1920.000000 1080.000000"
 preserveAspectRatio="xMidYMid meet">
<metadata>
Created by potrace 1.16, written by Peter Selinger 2001-2019
</metadata>
<g transform="translate(0.000000,1080.000000) scale(0.100000,-0.100000)"
fill="#000000" stroke="none">
<path d="M0 7920 l0 -2880 4063 0 4064 0 106 318 c59 174 185 551 282 837 96
286 209 621 250 744 89 263 89 265 104 231 63 -151 131 -334 131 -352 0 -15
-142 -433 -322 -948 -67 -193 -102 -294 -193 -560 -48 -140 -106 -306 -128
-367 l-40 -113 -4159 0 -4158 0 0 -2415 0 -2415 9600 0 9600 0 0 2413 0 2413
-3794 0 c-2087 -1 -3797 -3 -3799 -6 -5 -5 -42 -97 -126 -320 -29 -74 -71
-184 -94 -243 l-42 -108 -78 83 c-121 129 -115 105 -62 254 26 71 77 217 115
324 37 107 71 203 75 213 7 16 202 17 3906 17 l3899 0 0 2880 0 2880 -9600 0
-9600 0 0 -2880z m9233 -486 c86 -258 254 -757 372 -1109 118 -352 304 -903
412 -1225 108 -322 204 -607 214 -635 16 -47 16 -51 -1 -95 -34 -84 -58 -126
-64 -110 -2 8 -33 98 -67 200 -34 102 -136 403 -226 670 -90 267 -197 584
-238 705 -40 121 -148 441 -240 710 -91 270 -215 636 -275 815 -60 179 -139
411 -175 515 -35 105 -65 194 -65 199 0 4 44 -32 98 -82 l97 -90 158 -468z
m1774 -1458 c48 -48 55 -60 99 -191 26 -77 69 -204 96 -283 26 -78 48 -145 48
-147 0 -3 -31 -5 -69 -5 l-68 0 -88 268 c-48 147 -100 303 -115 347 -15 44
-30 93 -34 109 l-7 29 43 -38 c24 -21 66 -61 95 -89z m-105 -932 l62 -182
-289 -871 -290 -871 -97 102 c-61 65 -95 109 -92 118 3 8 34 103 69 210 35
107 129 391 208 630 79 239 190 576 247 748 57 172 107 309 111 305 4 -4 36
-90 71 -189z"/>
</g>
</svg>
