<?xml version="1.0" standalone="no"?>
<!DOCTYPE svg PUBLIC "-//W3C//DTD SVG 20010904//EN"
 "http://www.w3.org/TR/2001/REC-SVG-20010904/DTD/svg10.dtd">
<svg version="1.0" xmlns="http://www.w3.org/2000/svg"
 width="1920.000000pt" height="1080.000000pt" viewBox="0 0 1920.000000 1080.000000"
 preserveAspectRatio="xMidYMid meet">
<metadata>
Created by potrace 1.16, written by Peter Selinger 2001-2019
</metadata>
<g transform="translate(0.000000,1080.000000) scale(0.100000,-0.100000)"
fill="#000000" stroke="none">
<path d="M8884 8049 c16 -53 69 -212 295 -879 94 -278 216 -638 271 -800 55
-162 163 -482 240 -710 77 -228 185 -548 240 -710 207 -616 231 -685 236 -700
7 -18 32 26 64 111 l21 55 -81 240 c-44 131 -163 487 -265 789 -101 303 -281
838 -400 1190 -119 352 -263 782 -321 955 -59 177 -112 320 -121 327 -9 7 -48
43 -87 81 -108 103 -108 103 -92 51z"/>
<path d="M8842 7179 c-5 -13 -109 -321 -231 -684 -122 -363 -281 -838 -355
-1055 l-133 -395 -4061 -3 -4062 -2 0 -105 0 -105 4161 2 4162 3 33 90 c18 50
90 257 159 460 70 204 144 420 165 480 57 162 96 274 219 633 l112 323 -36 92
c-124 316 -119 305 -133 266z"/>
<path d="M10876 6063 c22 -72 194 -601 214 -658 l18 -50 71 -3 c47 -2 71 1 71
8 0 6 -27 91 -61 188 -33 97 -73 218 -89 267 -17 50 -38 101 -47 115 -20 28
-176 180 -185 180 -3 0 0 -21 8 -47z"/>
<path d="M10725 4953 c-53 -164 -107 -327 -120 -363 -45 -125 -415 -1255 -415
-1265 0 -5 45 -55 100 -110 67 -67 101 -94 104 -85 3 8 96 290 207 625 111
336 237 716 280 845 44 129 79 246 79 260 0 28 -114 368 -128 382 -5 5 -53
-124 -107 -289z"/>
<path d="M11391 5023 c-5 -10 -18 -47 -30 -83 -11 -36 -46 -135 -76 -220 -31
-85 -73 -203 -94 -262 l-38 -106 95 -102 c52 -56 98 -98 102 -93 3 4 23 53 44
108 52 135 94 245 155 402 28 72 51 136 51 142 0 8 1057 11 3800 11 l3800 0 0
110 0 110 -3900 0 c-3703 0 -3900 -1 -3909 -17z"/>
</g>
</svg>
