<?xml version="1.0" encoding="UTF-8" standalone="no"?>
<svg
   xmlns:dc="http://purl.org/dc/elements/1.1/"
   xmlns:cc="http://creativecommons.org/ns#"
   xmlns:rdf="http://www.w3.org/1999/02/22-rdf-syntax-ns#"
   xmlns:svg="http://www.w3.org/2000/svg"
   xmlns="http://www.w3.org/2000/svg"
   xmlns:sodipodi="http://sodipodi.sourceforge.net/DTD/sodipodi-0.dtd"
   xmlns:inkscape="http://www.inkscape.org/namespaces/inkscape"
   inkscape:version="1.0 (4035a4fb49, 2020-05-01)"
   sodipodi:docname="angel_beats_resized.svg"
   id="svg44"
   preserveAspectRatio="xMidYMid meet"
   viewBox="0 0 1920 495.49075"
   height="495.49075pt"
   width="1920pt"
   version="1.0">
  <defs
     id="defs48" />
  <sodipodi:namedview
     inkscape:current-layer="svg44"
     inkscape:window-maximized="1"
     inkscape:window-y="-9"
     inkscape:window-x="-9"
     inkscape:cy="357.76371"
     inkscape:cx="1280"
     inkscape:zoom="0.47851563"
     showgrid="false"
     id="namedview46"
     inkscape:window-height="1001"
     inkscape:window-width="1920"
     inkscape:pageshadow="2"
     inkscape:pageopacity="0"
     guidetolerance="10"
     gridtolerance="10"
     objecttolerance="10"
     borderopacity="1"
     bordercolor="#666666"
     pagecolor="#ffffff" />
  <metadata
     id="metadata30">
Created by potrace 1.16, written by Peter Selinger 2001-2019
<rdf:RDF>
  <cc:Work
     rdf:about="">
    <dc:format>image/svg+xml</dc:format>
    <dc:type
       rdf:resource="http://purl.org/dc/dcmitype/StillImage" />
    <dc:title></dc:title>
  </cc:Work>
</rdf:RDF>
</metadata>
  <g
     id="g42"
     stroke="none"
     fill="#000000"
     transform="matrix(0.1,0,0,-0.1,0,808.32278)">
    <path
       id="path32"
       d="m 8884,8049 c 16,-53 69,-212 295,-879 94,-278 216,-638 271,-800 55,-162 163,-482 240,-710 77,-228 185,-548 240,-710 207,-616 231,-685 236,-700 7,-18 32,26 64,111 l 21,55 -81,240 c -44,131 -163,487 -265,789 -101,303 -281,838 -400,1190 -119,352 -263,782 -321,955 -59,177 -112,320 -121,327 -9,7 -48,43 -87,81 -108,103 -108,103 -92,51 z" />
    <path
       id="path34"
       d="m 8842,7179 c -5,-13 -109,-321 -231,-684 -122,-363 -281,-838 -355,-1055 L 8123,5045 4062,5042 0,5040 v -105 -105 l 4161,2 4162,3 33,90 c 18,50 90,257 159,460 70,204 144,420 165,480 57,162 96,274 219,633 l 112,323 -36,92 c -124,316 -119,305 -133,266 z" />
    <path
       id="path36"
       d="m 10876,6063 c 22,-72 194,-601 214,-658 l 18,-50 71,-3 c 47,-2 71,1 71,8 0,6 -27,91 -61,188 -33,97 -73,218 -89,267 -17,50 -38,101 -47,115 -20,28 -176,180 -185,180 -3,0 0,-21 8,-47 z" />
    <path
       id="path38"
       d="m 10725,4953 c -53,-164 -107,-327 -120,-363 -45,-125 -415,-1255 -415,-1265 0,-5 45,-55 100,-110 67,-67 101,-94 104,-85 3,8 96,290 207,625 111,336 237,716 280,845 44,129 79,246 79,260 0,28 -114,368 -128,382 -5,5 -53,-124 -107,-289 z" />
    <path
       id="path40"
       d="m 11391,5023 c -5,-10 -18,-47 -30,-83 -11,-36 -46,-135 -76,-220 -31,-85 -73,-203 -94,-262 l -38,-106 95,-102 c 52,-56 98,-98 102,-93 3,4 23,53 44,108 52,135 94,245 155,402 28,72 51,136 51,142 0,8 1057,11 3800,11 h 3800 v 110 110 h -3900 c -3703,0 -3900,-1 -3909,-17 z" />
  </g>
</svg>
